<svg width="40" height="40" viewBox="0 0 40 40" fill="none" xmlns="http://www.w3.org/2000/svg">
  <path opacity="0.15" fill-rule="evenodd" clip-rule="evenodd" d="M29 1H12C10.8954 1 10 1.89543 10 3V37C10 38.1046 10.8954 39 12 39H29C30.1046 39 31 38.1046 31 37V3C31 1.89543 30.1046 1 29 1ZM28 37H13V4H28V37Z" fill="url(#paint0_linear)"/>
  <path d="M19.5 23.5V24.75H18.25V23.5H19.5ZM15.25 23.5V24.75H16.5V23.5H15.25ZM21.75 23.5V24.75H20.5V23.5H21.75ZM23 23.5V24.75H24.25V23.5H23ZM26.5 23.5V24.75H25.25V23.5H26.5ZM28.75 23.5V24.75H27.5V23.5H28.75ZM23 29V30.25H24.25V29H23ZM26.5 29V30.25H25.25V29H26.5ZM28.75 29V30.25H27.5V29H28.75ZM23 34.5V35.75H24.25V34.5H23ZM26.5 34.5V35.75H25.25V34.5H26.5ZM28.75 34.5V35.75H27.5V34.5H28.75ZM22.75 20.75H25.25V19.5H22.75V20.75ZM28 18V20H27V19C27 18.7348 26.9124 18.4804 26.7574 18.2929C26.6023 18.1054 26.3864 18 26.1607 18H24V17H26.1607C26.3864 17 26.6023 16.8946 26.7574 16.7071C26.9124 16.5196 27 16.2652 27 16V15C27 14.7348 26.9124 14.4804 26.7574 14.2929C26.6023 14.1054 26.3864 14 26.1607 14H24V13H26.1607C26.3864 13 26.6023 12.8946 26.7574 12.7071C26.9124 12.5196 27 12.2652 27 12V11C27 10.7348 26.9124 10.4804 26.7574 10.2929C26.6023 10.1054 26.3864 10 26.1607 10H24V9H26.1607C26.3864 9 26.6023 8.89464 26.7574 8.70714C26.9124 8.51963 27 8.26522 27 8V7C27 6.73478 26.9124 6.48043 26.7574 6.29293C26.6023 6.10543 26.3864 6 26.1607 6H24V4H28V18H28.75V3.5C28.75 2.67157 28.0784 2 27.25 2H11.75C10.9216 2 10.25 2.67157 10.25 3.5V36.5C10.25 37.3284 10.9216 38 11.75 38H27.25C28.0784 38 28.75 37.3284 28.75 36.5V20.75H30V36.5C30 38.1569 28.6569 39.5 27 39.5H11.75C10.0931 39.5 8.75 38.1569 8.75 36.5V3.5C8.75 1.84315 10.0931 0.5 11.75 0.5H27C28.6569 0.5 30 1.84315 30 3.5V18H28ZM24 22H26V24H24V22ZM24 26H26V28H24V26ZM24 31H26V33H24V31Z" fill="url(#paint1_linear)"/>
  <defs>
    <linearGradient id="paint0_linear" x1="8.90549" y1="1" x2="33.9055" y2="32.6389" gradientUnits="userSpaceOnUse">
      <stop offset="0.259336" stop-color="#5CC9F5"/>
      <stop offset="1" stop-color="#38A3D1"/>
    </linearGradient>
    <linearGradient id="paint1_linear" x1="23.6261" y1="0" x2="35.1236" y2="38.4918" gradientUnits="userSpaceOnUse">
      <stop offset="0.259336" stop-color="#5CC9F5"/>
      <stop offset="1" stop-color="#38A3D1"/>
    </linearGradient>
  </defs>
</svg>
